# xmcd CD database file
#
# Track frame offsets:
#	150
#	11222
#	23657
#	36737
#	48674
#	61909
#	73544
#	83677
#	96431
#	109617
#	116950
#	126528
#	138204
#	150607
#	167222
#
# Disc length: 2370 seconds
#
# Revision: 0
# Processed by: cddbd v1.5.2PL0 Copyright (c) Steve Scherf et al.
# Submitted via: cdripper 1,0,39,0213
#
DISCID=d609400f
DTITLE=Varouis - Country Legends - King Of The Road
DYEAR=1900
DGENRE=Country
TTITLE0=01 Roger Miller - King Of The Road
TTITLE1=02 Hank Williams - Last Night I Heard You Crying In Your Sleep
TTITLE2=03 Lynn Anderson - Rose Garden
TTITLE3=04 Waylon Jennings - Crying
TTITLE4=05 Loretta Lynn - Let Your Love Flow
TTITLE5=06 Kenny Rogers and The First Edition - Me and Bobby McGee
TTITLE6=07 Willie Nelson - Broken Promises
TTITLE7=08 Patsy Cline - Fingerprints
TTITLE8=09 Freddy Fender - Silver Wings
TTITLE9=10 Conway Twitty (aka Harold Jenkins) - Treat Me Mean Treat Me Cruel
TTITLE10=11 Dolly Parton - Girl Left Alone
TTITLE11=12 Ed Bruce (aka Edwin Bruce) - Baby That's Good
TTITLE12=13 Anne Murray - All The Time
TTITLE13=14 Jimmy Davis - You Are My Sunshine
TTITLE14=15 Billie Jo Spears - I'm So Lonesome I Could Cry
EXTD=
EXTT0=
EXTT1=
EXTT2=
EXTT3=
EXTT4=
EXTT5=
EXTT6=
EXTT7=
EXTT8=
EXTT9=
EXTT10=
EXTT11=
EXTT12=
EXTT13=
EXTT14=
PLAYORDER=
